<mxfile host="app.diagrams.net" agent="Mozilla/5.0 (Windows NT 10.0; Win64; x64) AppleWebKit/537.36 (KHTML, like Gecko) Chrome/135.0.0.0 Safari/537.36" version="26.2.14">
  <diagram name="Page-1" id="2YBvvXClWsGukQMizWep">
    <mxGraphModel dx="2239" dy="749" grid="1" gridSize="10" guides="1" tooltips="1" connect="1" arrows="1" fold="1" page="1" pageScale="1" pageWidth="850" pageHeight="1100" math="0" shadow="0">
      <root>
        <mxCell id="0" />
        <mxCell id="1" parent="0" />
        <mxCell id="aM9ryv3xv72pqoxQDRHE-5" value="Systeme" style="shape=umlLifeline;perimeter=lifelinePerimeter;whiteSpace=wrap;html=1;container=0;dropTarget=0;collapsible=0;recursiveResize=0;outlineConnect=0;portConstraint=eastwest;newEdgeStyle={&quot;edgeStyle&quot;:&quot;elbowEdgeStyle&quot;,&quot;elbow&quot;:&quot;vertical&quot;,&quot;curved&quot;:0,&quot;rounded&quot;:0};" parent="1" vertex="1">
          <mxGeometry x="220" y="30" width="100" height="650" as="geometry" />
        </mxCell>
        <mxCell id="aM9ryv3xv72pqoxQDRHE-6" value="" style="html=1;points=[];perimeter=orthogonalPerimeter;outlineConnect=0;targetShapes=umlLifeline;portConstraint=eastwest;newEdgeStyle={&quot;edgeStyle&quot;:&quot;elbowEdgeStyle&quot;,&quot;elbow&quot;:&quot;vertical&quot;,&quot;curved&quot;:0,&quot;rounded&quot;:0};" parent="aM9ryv3xv72pqoxQDRHE-5" vertex="1">
          <mxGeometry x="45" y="142" width="10" height="40" as="geometry" />
        </mxCell>
        <mxCell id="aM9ryv3xv72pqoxQDRHE-7" value="1: Lancer ajouter Demande" style="html=1;verticalAlign=bottom;endArrow=block;edgeStyle=elbowEdgeStyle;elbow=vertical;curved=0;rounded=0;" parent="1" target="aM9ryv3xv72pqoxQDRHE-6" edge="1">
          <mxGeometry relative="1" as="geometry">
            <mxPoint x="60" y="172" as="sourcePoint" />
            <Array as="points">
              <mxPoint x="175" y="172" />
            </Array>
            <mxPoint x="260" y="172" as="targetPoint" />
          </mxGeometry>
        </mxCell>
        <mxCell id="Rfve0VC_3ciRuQ4UTeaB-1" value="Personnel" style="shape=umlActor;verticalLabelPosition=bottom;verticalAlign=top;html=1;outlineConnect=0;" vertex="1" parent="1">
          <mxGeometry x="45" y="9" width="30" height="60" as="geometry" />
        </mxCell>
        <mxCell id="Rfve0VC_3ciRuQ4UTeaB-4" value="" style="endArrow=none;dashed=1;html=1;rounded=0;" edge="1" parent="1">
          <mxGeometry width="50" height="50" relative="1" as="geometry">
            <mxPoint x="60" y="680" as="sourcePoint" />
            <mxPoint x="60" y="90" as="targetPoint" />
          </mxGeometry>
        </mxCell>
        <mxCell id="Rfve0VC_3ciRuQ4UTeaB-6" value="" style="endArrow=classic;html=1;rounded=0;dashed=1;" edge="1" parent="1">
          <mxGeometry width="50" height="50" relative="1" as="geometry">
            <mxPoint x="265" y="211.0000000000001" as="sourcePoint" />
            <mxPoint x="60" y="211" as="targetPoint" />
          </mxGeometry>
        </mxCell>
        <mxCell id="Rfve0VC_3ciRuQ4UTeaB-8" value="2: Afficher les types Demandes" style="text;html=1;align=center;verticalAlign=middle;resizable=0;points=[];autosize=1;strokeColor=none;fillColor=none;" vertex="1" parent="1">
          <mxGeometry x="66" y="187" width="190" height="30" as="geometry" />
        </mxCell>
        <mxCell id="Rfve0VC_3ciRuQ4UTeaB-9" value="3: Choisir Type Demande" style="html=1;verticalAlign=bottom;endArrow=block;edgeStyle=elbowEdgeStyle;elbow=vertical;curved=0;rounded=0;" edge="1" parent="1">
          <mxGeometry relative="1" as="geometry">
            <mxPoint x="61" y="251" as="sourcePoint" />
            <Array as="points">
              <mxPoint x="176" y="251" />
            </Array>
            <mxPoint x="266" y="251" as="targetPoint" />
          </mxGeometry>
        </mxCell>
        <mxCell id="Rfve0VC_3ciRuQ4UTeaB-10" value="" style="endArrow=classic;html=1;rounded=0;dashed=1;" edge="1" parent="1">
          <mxGeometry width="50" height="50" relative="1" as="geometry">
            <mxPoint x="266" y="291" as="sourcePoint" />
            <mxPoint x="61" y="291" as="targetPoint" />
          </mxGeometry>
        </mxCell>
        <mxCell id="Rfve0VC_3ciRuQ4UTeaB-11" value="4: Afficher Formulaire" style="text;html=1;align=center;verticalAlign=middle;resizable=0;points=[];autosize=1;strokeColor=none;fillColor=none;" vertex="1" parent="1">
          <mxGeometry x="92" y="267" width="140" height="30" as="geometry" />
        </mxCell>
        <mxCell id="Rfve0VC_3ciRuQ4UTeaB-12" value="" style="rounded=0;whiteSpace=wrap;html=1;" vertex="1" parent="1">
          <mxGeometry x="265" y="251" width="10" height="40" as="geometry" />
        </mxCell>
        <mxCell id="Rfve0VC_3ciRuQ4UTeaB-13" value="5: Saisir les données&amp;nbsp;" style="html=1;verticalAlign=bottom;endArrow=block;edgeStyle=elbowEdgeStyle;elbow=vertical;curved=0;rounded=0;" edge="1" parent="1">
          <mxGeometry relative="1" as="geometry">
            <mxPoint x="60" y="328" as="sourcePoint" />
            <Array as="points">
              <mxPoint x="175" y="328" />
            </Array>
            <mxPoint x="265" y="328" as="targetPoint" />
          </mxGeometry>
        </mxCell>
        <mxCell id="Rfve0VC_3ciRuQ4UTeaB-16" value="" style="rounded=0;whiteSpace=wrap;html=1;" vertex="1" parent="1">
          <mxGeometry x="265" y="328" width="10" height="40" as="geometry" />
        </mxCell>
        <mxCell id="Rfve0VC_3ciRuQ4UTeaB-17" value="6: Cliquer dur boutton &quot;Valider&quot;" style="html=1;verticalAlign=bottom;endArrow=block;edgeStyle=elbowEdgeStyle;elbow=vertical;curved=0;rounded=0;" edge="1" parent="1">
          <mxGeometry relative="1" as="geometry">
            <mxPoint x="60" y="370" as="sourcePoint" />
            <Array as="points">
              <mxPoint x="175" y="370" />
            </Array>
            <mxPoint x="265" y="370" as="targetPoint" />
          </mxGeometry>
        </mxCell>
        <mxCell id="Rfve0VC_3ciRuQ4UTeaB-18" value="alt" style="shape=umlFrame;whiteSpace=wrap;html=1;pointerEvents=0;" vertex="1" parent="1">
          <mxGeometry x="-13" y="421" width="340" height="180" as="geometry" />
        </mxCell>
        <mxCell id="Rfve0VC_3ciRuQ4UTeaB-19" value="[Données non valides]" style="text;html=1;align=center;verticalAlign=middle;resizable=0;points=[];autosize=1;strokeColor=none;fillColor=none;" vertex="1" parent="1">
          <mxGeometry x="-11" y="446" width="140" height="30" as="geometry" />
        </mxCell>
        <mxCell id="Rfve0VC_3ciRuQ4UTeaB-20" value="" style="rounded=0;whiteSpace=wrap;html=1;" vertex="1" parent="1">
          <mxGeometry x="265" y="370" width="10" height="40" as="geometry" />
        </mxCell>
        <mxCell id="Rfve0VC_3ciRuQ4UTeaB-21" value="" style="endArrow=classic;html=1;rounded=0;dashed=1;" edge="1" parent="1">
          <mxGeometry width="50" height="50" relative="1" as="geometry">
            <mxPoint x="269.5000000000002" y="491" as="sourcePoint" />
            <mxPoint x="60" y="491" as="targetPoint" />
          </mxGeometry>
        </mxCell>
        <mxCell id="Rfve0VC_3ciRuQ4UTeaB-22" value="7: Afficher un message d&#39;erreur" style="text;html=1;align=center;verticalAlign=middle;resizable=0;points=[];autosize=1;strokeColor=none;fillColor=none;" vertex="1" parent="1">
          <mxGeometry x="67" y="485" width="190" height="30" as="geometry" />
        </mxCell>
        <mxCell id="Rfve0VC_3ciRuQ4UTeaB-23" value="[Données valides]" style="text;html=1;align=center;verticalAlign=middle;resizable=0;points=[];autosize=1;strokeColor=none;fillColor=none;" vertex="1" parent="1">
          <mxGeometry x="-1" y="521" width="120" height="30" as="geometry" />
        </mxCell>
        <mxCell id="Rfve0VC_3ciRuQ4UTeaB-24" value="" style="endArrow=classic;html=1;rounded=0;dashed=1;" edge="1" parent="1">
          <mxGeometry width="50" height="50" relative="1" as="geometry">
            <mxPoint x="269.5000000000002" y="566" as="sourcePoint" />
            <mxPoint x="60" y="566" as="targetPoint" />
          </mxGeometry>
        </mxCell>
        <mxCell id="Rfve0VC_3ciRuQ4UTeaB-25" value="8: Afficher un message d&#39;erreur" style="text;html=1;align=center;verticalAlign=middle;resizable=0;points=[];autosize=1;strokeColor=none;fillColor=none;" vertex="1" parent="1">
          <mxGeometry x="67" y="560" width="190" height="30" as="geometry" />
        </mxCell>
        <mxCell id="Rfve0VC_3ciRuQ4UTeaB-26" value="" style="endArrow=none;dashed=1;html=1;rounded=0;exitX=0.012;exitY=0.63;exitDx=0;exitDy=0;exitPerimeter=0;entryX=1;entryY=0.554;entryDx=0;entryDy=0;entryPerimeter=0;dashPattern=8 8;" edge="1" parent="1" target="Rfve0VC_3ciRuQ4UTeaB-18">
          <mxGeometry width="50" height="50" relative="1" as="geometry">
            <mxPoint x="-12.920000000000073" y="521.8000000000001" as="sourcePoint" />
            <mxPoint x="330" y="520" as="targetPoint" />
          </mxGeometry>
        </mxCell>
        <mxCell id="Rfve0VC_3ciRuQ4UTeaB-27" value="ref" style="shape=umlFrame;whiteSpace=wrap;html=1;pointerEvents=0;" vertex="1" parent="1">
          <mxGeometry x="-5" y="102" width="323" height="40" as="geometry" />
        </mxCell>
        <mxCell id="Rfve0VC_3ciRuQ4UTeaB-28" value="S&#39;authentifier" style="text;html=1;align=center;verticalAlign=middle;resizable=0;points=[];autosize=1;strokeColor=none;fillColor=none;" vertex="1" parent="1">
          <mxGeometry x="119" y="98" width="90" height="30" as="geometry" />
        </mxCell>
      </root>
    </mxGraphModel>
  </diagram>
</mxfile>
